<svg width="3009" height="500" viewBox="0 0 3009 500" fill="none" xmlns="http://www.w3.org/2000/svg">
<path d="M931.387 469V109.242H977.932V469H931.387ZM1066.8 469V212.03H1113.35V469H1066.8ZM1090.08 162.576C1081.03 162.576 1073.43 159.667 1067.29 153.848C1061.47 148.03 1058.56 140.919 1058.56 132.515C1058.56 123.788 1061.47 116.515 1067.29 110.697C1073.43 104.879 1081.03 101.97 1090.08 101.97C1099.13 101.97 1106.56 104.879 1112.38 110.697C1118.52 116.192 1121.59 123.141 1121.59 131.545C1121.59 140.273 1118.68 147.707 1112.86 153.848C1107.05 159.667 1099.45 162.576 1090.08 162.576ZM1339.43 209.606C1360.44 209.606 1378.87 213.646 1394.71 221.727C1410.87 229.808 1423.47 242.091 1432.52 258.576C1441.57 275.061 1446.1 295.909 1446.1 321.121V469H1399.55V326.455C1399.55 301.566 1393.41 282.818 1381.13 270.212C1369.17 257.606 1352.2 251.303 1330.22 251.303C1313.74 251.303 1299.35 254.535 1287.07 261C1274.79 267.465 1265.25 277 1258.46 289.606C1252 302.212 1248.77 317.889 1248.77 336.636V469H1202.22V212.03H1246.83V281.364L1239.55 262.939C1247.96 246.131 1260.89 233.04 1278.34 223.667C1295.8 214.293 1316.16 209.606 1339.43 209.606ZM1570.06 406.939L1571.03 347.303L1718.91 212.03H1775.15L1661.69 323.545L1636.48 344.879L1570.06 406.939ZM1532.24 469V109.242H1578.78V469H1532.24ZM1728.6 469L1627.75 343.909L1657.81 306.576L1785.81 469H1728.6ZM1831.01 469V109.242H1877.55V469H1831.01ZM2076.49 471.909C2050.63 471.909 2027.68 466.253 2007.64 454.939C1987.6 443.626 1971.76 428.111 1960.12 408.394C1948.49 388.354 1942.67 365.727 1942.67 340.515C1942.67 314.98 1948.49 292.354 1960.12 272.636C1971.76 252.919 1987.6 237.566 2007.64 226.576C2027.68 215.263 2050.63 209.606 2076.49 209.606C2102.02 209.606 2124.81 215.263 2144.85 226.576C2165.21 237.566 2181.05 252.919 2192.36 272.636C2204 292.03 2209.82 314.657 2209.82 340.515C2209.82 366.051 2204 388.677 2192.36 408.394C2181.05 428.111 2165.21 443.626 2144.85 454.939C2124.81 466.253 2102.02 471.909 2076.49 471.909ZM2076.49 431.182C2092.97 431.182 2107.68 427.465 2120.61 420.03C2133.86 412.596 2144.2 402.091 2151.64 388.515C2159.07 374.616 2162.79 358.616 2162.79 340.515C2162.79 322.091 2159.07 306.253 2151.64 293C2144.2 279.424 2133.86 268.919 2120.61 261.485C2107.68 254.05 2092.97 250.333 2076.49 250.333C2060 250.333 2045.29 254.05 2032.36 261.485C2019.43 268.919 2009.09 279.424 2001.33 293C1993.58 306.253 1989.7 322.091 1989.7 340.515C1989.7 358.616 1993.58 374.616 2001.33 388.515C2009.09 402.091 2019.43 412.596 2032.36 420.03C2045.29 427.465 2060 431.182 2076.49 431.182ZM2382.31 471.909C2360.33 471.909 2340.94 467.869 2324.13 459.788C2307.64 451.707 2294.72 439.424 2285.34 422.939C2276.29 406.131 2271.77 385.121 2271.77 359.909V212.03H2318.31V354.576C2318.31 379.788 2324.29 398.697 2336.25 411.303C2348.53 423.909 2365.66 430.212 2387.64 430.212C2403.81 430.212 2417.87 426.98 2429.83 420.515C2441.79 413.727 2451 404.03 2457.46 391.424C2463.93 378.495 2467.16 362.98 2467.16 344.879V212.03H2513.71V469H2469.58V399.667L2476.86 418.091C2468.45 435.222 2455.85 448.475 2439.04 457.848C2422.23 467.222 2403.32 471.909 2382.31 471.909ZM2708.5 471.909C2683.61 471.909 2661.3 466.414 2641.59 455.424C2622.19 444.434 2606.84 429.081 2595.53 409.364C2584.21 389.646 2578.56 366.697 2578.56 340.515C2578.56 314.333 2584.21 291.545 2595.53 272.152C2606.84 252.434 2622.19 237.081 2641.59 226.091C2661.3 215.101 2683.61 209.606 2708.5 209.606C2730.15 209.606 2749.71 214.455 2767.16 224.152C2784.62 233.848 2798.52 248.394 2808.86 267.788C2819.53 287.182 2824.86 311.424 2824.86 340.515C2824.86 369.606 2819.69 393.848 2809.35 413.242C2799.33 432.636 2785.59 447.343 2768.13 457.364C2750.68 467.061 2730.8 471.909 2708.5 471.909ZM2712.38 431.182C2728.54 431.182 2743.08 427.465 2756.01 420.03C2769.26 412.596 2779.61 402.091 2787.04 388.515C2794.8 374.616 2798.68 358.616 2798.68 340.515C2798.68 322.091 2794.8 306.253 2787.04 293C2779.61 279.424 2769.26 268.919 2756.01 261.485C2743.08 254.05 2728.54 250.333 2712.38 250.333C2695.89 250.333 2681.18 254.05 2668.25 261.485C2655.33 268.919 2644.98 279.424 2637.22 293C2629.47 306.253 2625.59 322.091 2625.59 340.515C2625.59 358.616 2629.47 374.616 2637.22 388.515C2644.98 402.091 2655.33 412.596 2668.25 420.03C2681.18 427.465 2695.89 431.182 2712.38 431.182ZM2800.13 469V399.667L2803.04 340.03L2798.19 280.394V109.242H2844.74V469H2800.13Z" fill="#476AD0"/>
<path fill-rule="evenodd" clip-rule="evenodd" d="M493.35 177.038H609.554C695.988 177.038 766.061 245.944 766.061 330.942C766.061 415.942 695.988 484.848 609.554 484.848H461.866H156.507C70.0706 484.848 0 415.942 0 330.942C-4.41695e-05 270.602 35.3119 218.372 86.7229 193.146C90.7582 85.803 180.523 0 290.666 0C395.243 0 481.447 77.3464 493.35 177.038Z" fill="#476AD0"/>
</svg>
